PathFileType	4	(X/Y/Z)	c:/Users/goper/Files/vsCode/490R/osim_files/C07/C07_Fast_06.trc
DataRate	CameraRate	NumFrames	NumMarkers	Units                	OrigDataRate	OrigDataStartFrame	OrigNumFrames
250.00	250.00	4	36	mm	250.0	1943	3108
                Frame#	Time	LPSIS			LASIS			LTH1			LTH2			LTH3			LTH4			LLFE			LMFE			LSH1			LSH2			LSH3			LSH4			LLMAL			LMMAL			LCAL			LMTP5			LTOE			LMTP1			RPSIS			RASIS			RTH1			RTH2			RTH3			RTH4			RLFE			RMFE			RSH1			RSH2			RSH3			RSH4			RLMAL			RMMAL			RCAL			RMTP1			RTOE			RMTP5		
		X1	Y1	Z1	X2	Y2	Z2	X3	Y3	Z3	X4	Y4	Z4	X5	Y5	Z5	X6	Y6	Z6	X7	Y7	Z7	X8	Y8	Z8	X9	Y9	Z9	X10	Y10	Z10	X11	Y11	Z11	X12	Y12	Z12	X13	Y13	Z13	X14	Y14	Z14	X15	Y15	Z15	X16	Y16	Z16	X17	Y17	Z17	X18	Y18	Z18	X19	Y19	Z19	X20	Y20	Z20	X21	Y21	Z21	X22	Y22	Z22	X23	Y23	Z23	X24	Y24	Z24	X25	Y25	Z25	X26	Y26	Z26	X27	Y27	Z27	X28	Y28	Z28	X29	Y29	Z29	X30	Y30	Z30	X31	Y31	Z31	X32	Y32	Z32	X33	Y33	Z33	X34	Y34	Z34	X35	Y35	Z35	X36	Y36	Z36

1943	7.76800	-1921.48499	975.72229	295.20309	-2105.50464	968.36877	338.12082	-2104.36841	765.22382	394.75922	-2138.03687	694.54315	383.72949	-2170.34009	629.07904	363.33813	-2204.50049	732.14899	355.03195	-2191.35791	509.31879	334.10217	-2177.47974	500.93091	217.11208	-2172.82959	321.41534	340.53787	-2158.11182	277.47882	328.26080	-2210.43799	328.32111	324.13580	-2207.22754	283.20789	316.27383	-2142.70557	102.08208	282.18793	-2166.92188	126.93868	211.02226	-2081.54370	44.35844	234.77573	-2266.32056	39.01486	303.46661	-2322.96826	51.88017	249.31139	-2292.12476	40.03388	198.47992	-1908.39868	975.79480	195.84460	-2051.30322	941.41888	89.18423	-1991.35779	787.99457	48.06597	-1991.89954	708.71698	41.49155	-1993.41675	626.53137	43.23030	-2067.77954	708.66565	61.08144	-1967.37061	454.04550	67.95312	-1996.25891	456.80344	181.70473	-1796.47156	384.24365	85.61354	-1775.30188	332.32474	86.41946	-1835.09448	336.24283	80.06976	-1799.75391	313.96558	92.71652	-1635.14368	249.39427	150.38786	-1670.61096	230.75296	222.32373	-1577.38904	279.38358	209.02196	-1642.28467	84.27626	247.75597	-1648.75549	56.13860	192.17691	-1607.70337	92.02036	143.46106
1944	7.77200	-1926.17725	976.33429	295.31570	-2110.32739	969.17145	337.90317	-2108.67651	765.89203	394.39658	-2142.04175	695.08875	383.25531	-2171.50781	628.31592	361.71207	-2208.44727	732.20221	354.25058	-2195.60474	509.99017	334.37006	-2179.75342	501.10031	216.42007	-2174.01221	321.55673	340.12845	-2159.31934	277.74768	328.01682	-2211.63452	328.12369	323.65906	-2208.31030	283.04532	315.93109	-2143.08643	102.09326	281.88513	-2167.07422	126.86341	210.76311	-2081.55835	44.38917	234.76079	-2266.32080	38.98178	303.44583	-2323.02588	51.74028	249.25491	-2292.24438	39.98935	198.50392	-1913.01367	976.13751	196.13167	-2055.89209	942.45746	89.31670	-1997.51233	788.09180	47.89036	-1999.35974	708.92810	41.05075	-2001.63220	626.74408	42.59084	-2075.06079	709.89880	60.83101	-1978.30371	454.07529	66.83618	-2005.04199	457.02377	180.26462	-1807.47888	385.34683	83.66031	-1785.93872	333.49420	84.74229	-1846.47412	336.69284	78.84586	-1810.09265	314.71729	91.04636	-1644.97388	252.36560	148.23083	-1680.02380	232.91089	219.90205	-1589.24182	284.16226	206.61037	-1648.00635	85.89997	245.58124	-1653.83691	57.92200	191.00581	-1613.30457	94.68774	141.99303
1945	7.77600	-1930.86841	977.03809	295.42896	-2115.29053	970.09229	337.67029	-2112.86743	766.50330	394.00613	-2145.83862	695.49304	382.76453	-2175.35254	628.80695	361.28421	-2212.36450	732.35938	353.42059	-2198.00732	509.99033	333.81970	-2181.86621	501.20840	215.69327	-2175.26196	321.62137	339.73404	-2160.04248	277.75162	327.74655	-2212.93677	327.95511	323.32449	-2209.12842	282.82080	315.61859	-2143.19556	102.25944	281.83878	-2167.20703	126.81696	210.49225	-2081.60962	44.45587	234.77461	-2266.28955	38.90450	303.43481	-2323.10034	51.61504	249.21808	-2292.30664	39.99740	198.51851	-1917.45422	976.51068	196.39624	-2059.59619	942.87122	89.66916	-2003.73645	788.43433	47.71371	-2006.63062	709.23926	40.64005	-2009.88171	627.09381	42.04634	-2082.43091	711.16620	60.57306	-1989.15405	454.39954	65.66595	-2014.72278	457.41644	179.43979	-1818.50244	386.45496	81.71032	-1796.58069	334.87167	82.78086	-1856.61670	337.68475	77.11001	-1820.60449	316.40485	89.32035	-1654.73035	255.18425	145.96240	-1689.56628	234.85979	217.84215	-1601.57019	288.54416	204.19341	-1653.95020	87.46372	243.01277	-1659.21545	59.85992	189.80229	-1618.93738	97.33902	140.57443
1946	7.78000	-1934.81213	977.45471	295.54504	-2120.06616	970.87939	337.48434	-2117.07593	767.17157	393.71118	-2149.69434	696.00299	382.33154	-2178.60107	629.05872	360.81097	-2216.19971	732.41705	352.72864	-2198.57593	509.21323	332.29199	-2183.88184	501.26266	215.12442	-2176.41040	321.58246	339.42395	-2161.31201	277.91846	327.45700	-2214.08203	327.70316	323.02481	-2210.29004	282.66074	315.30386	-2143.44141	102.35291	281.70370	-2167.33398	126.75112	210.24062	-2081.61816	44.47953	234.78239	-2266.29028	38.84983	303.44781	-2323.13843	51.52299	249.21852	-2292.40039	39.99219	198.51921	-1922.10205	976.87360	196.62912	-2064.44238	943.45392	88.84658	-2009.93201	788.83301	47.57541	-2013.94653	709.72675	40.21032	-2018.17383	627.57825	41.57150	-2089.73706	712.48914	60.35703	-1999.96252	454.85687	64.55493	-2024.48596	458.52371	178.33907	-1829.53320	387.56952	79.75343	-1807.26331	336.06277	81.02638	-1867.41748	338.56915	75.57003	-1831.27930	317.57962	87.62361	-1664.59985	257.88004	143.76437	-1699.33875	236.54024	215.49355	-1614.39258	292.49902	201.74788	-1660.08008	89.39758	240.52831	-1664.89966	61.95824	188.56531	-1624.58179	100.07564	139.09550
